<?xml version="1.0" encoding="UTF-8" standalone="no"?>
<svg
   id="bb37ce45-5f77-4c14-919f-bba0038d9c8d"
   data-name="Layer 1"
   width="23.37"
   height="24.95"
   viewBox="0 0 23.37 24.95"
   version="1.1"
   sodipodi:docname="AdvantageIconWhite.svg"
   inkscape:version="1.1.2 (b8e25be833, 2022-02-05)"
   xmlns:inkscape="http://www.inkscape.org/namespaces/inkscape"
   xmlns:sodipodi="http://sodipodi.sourceforge.net/DTD/sodipodi-0.dtd"
   xmlns:xlink="http://www.w3.org/1999/xlink"
   xmlns="http://www.w3.org/2000/svg"
   xmlns:svg="http://www.w3.org/2000/svg">
  <sodipodi:namedview
     id="namedview69"
     pagecolor="#ffffff"
     bordercolor="#666666"
     borderopacity="1.0"
     inkscape:pageshadow="2"
     inkscape:pageopacity="1"
     inkscape:pagecheckerboard="0"
     showgrid="false"
     inkscape:zoom="8.0160318"
     inkscape:cx="19.897626"
     inkscape:cy="38.048751"
     inkscape:window-width="1920"
     inkscape:window-height="1009"
     inkscape:window-x="-8"
     inkscape:window-y="-8"
     inkscape:window-maximized="1"
     inkscape:current-layer="bb37ce45-5f77-4c14-919f-bba0038d9c8d"
     units="mm" />
  <defs
     id="defs58">
    <clipPath
       id="a107b045-5c0f-4ce4-9705-3e6fab8f1818">
      <path
         d="M0,19.27a.19.19,0,0,0,0,.08v0a.72.72,0,0,0,.15.41c1,1.45,6.3,3.41,12.7,4.66.92.18,1.82.34,2.68.47l.2,0c.28.06.09-.24,0-.45v0a23.63,23.63,0,0,1-1.26-4.89l0-.12-.56-.12a53.15,53.15,0,0,0-9.7-1.1c-2.52,0-4,.38-4.18,1"
         fill="none"
         id="path40" />
    </clipPath>
    <linearGradient
       id="abd3b3c6-de72-4c10-89be-8e3b659b757e"
       x1="-1552.63"
       y1="-1187.58"
       x2="-1551.63"
       y2="-1187.58"
       gradientTransform="translate(24650.73 18876.49) scale(15.88)"
       gradientUnits="userSpaceOnUse">
      <stop
         offset="0"
         stop-color="#6b1914"
         id="stop43" />
      <stop
         offset="0.17"
         stop-color="#7a1914"
         id="stop45" />
      <stop
         offset="0.52"
         stop-color="#951615"
         id="stop47" />
      <stop
         offset="0.81"
         stop-color="#a81316"
         id="stop49" />
      <stop
         offset="1"
         stop-color="#b01116"
         id="stop51" />
    </linearGradient>
    <clipPath
       id="e54aae5b-7f8b-47d0-8fff-4dc855d54e31">
      <path
         d="M23.27,0a.4.4,0,0,0-.19.07C10.22,5.74,1.15,17.25,1.07,17.36s-.22.23-.15.33a.68.68,0,0,0,.31-.05c.07,0,1.89-.19,3-.19a48,48,0,0,1,9,1,46.43,46.43,0,0,1,9.58,2.89s.22.11.28,0-.05-.27-.05-.27a21.5,21.5,0,0,1-1.53-5.83,31.91,31.91,0,0,1,1.74-15s.09-.19,0-.26l-.06,0Z"
         fill="none"
         id="path54" />
    </clipPath>
    <linearGradient
       id="a5efab98-f1ad-4b9a-a121-135573f06c03"
       x1="-1583.24"
       y1="-1167.19"
       x2="-1582.24"
       y2="-1167.19"
       gradientTransform="translate(35568.43 26231.72) scale(22.47)"
       xlink:href="#abd3b3c6-de72-4c10-89be-8e3b659b757e" />
  </defs>
  <g
     clip-path="url(#a107b045-5c0f-4ce4-9705-3e6fab8f1818)"
     id="g62">
    <rect
       y="18.23"
       width="16.01"
       height="6.77"
       fill="url(#abd3b3c6-de72-4c10-89be-8e3b659b757e)"
       id="rect60"
       style="fill:#ffffff" />
  </g>
  <g
     clip-path="url(#e54aae5b-7f8b-47d0-8fff-4dc855d54e31)"
     id="g66"
     style="fill:#ffffff">
    <rect
       x="0.85"
       width="22.56"
       height="21.43"
       fill="url(#a5efab98-f1ad-4b9a-a121-135573f06c03)"
       id="rect64"
       style="fill:#ffffff" />
  </g>
</svg>
